# xmcd CD database file
#
# Track frame offsets:
#	150
#	25337
#	49357
#	75170
#	106975
#	127990
#	167182
#	192880
#	232282
#	269864
#
# Disc length: 3828 seconds
#
# Revision: 0
# Processed by: cddbd v1.5.2PL0 Copyright (c) Steve Scherf et al.
# Submitted via: Feurio! 1.68 - http://www.feurio.com
#
DISCID=8a0ef20a
DTITLE=Albert Collins - Joe's Place   Cambridge, MA   01-17-73
DYEAR=1900
DGENRE=
TTITLE0=band intro > instrumental
TTITLE1=Can't You See What You Are Doing To Me
TTITLE2=Letter To My Girlfriend
TTITLE3=instrumental
TTITLE4=Frosty
TTITLE5=Conversation With Collins
TTITLE6=Backstroke
TTITLE7=Stormy Monday
TTITLE8=instrumental
TTITLE9=instrumental
EXTD=
EXTT0=
EXTT1=
EXTT2=
EXTT3=
EXTT4=
EXTT5=
EXTT6=
EXTT7=
EXTT8=
EXTT9=
PLAYORDER=
